<svg width="25" height="22" viewBox="0 0 25 22" fill="none" xmlns="http://www.w3.org/2000/svg">
<path d="M24.25 18V3C24.25 1.346 22.904 0 21.25 0H3.25C1.596 0 0.25 1.346 0.25 3V18H11.25V20H6.25V22H18.25V20H13.25V18H24.25ZM13.956 5.709L15.37 4.295L18.668 7.594C19.443 8.369 19.443 9.631 18.668 10.406L15.369 13.705L13.955 12.291L17.253 8.992L13.955 5.709H13.956ZM10.545 12.291L9.131 13.705L5.833 10.406C5.058 9.631 5.058 8.369 5.833 7.594L9.132 4.295L10.546 5.709L7.248 9.008L10.545 12.291Z" fill="#1B2422"/>
</svg>
