<svg width="17" height="14" viewBox="0 0 17 14" fill="none" xmlns="http://www.w3.org/2000/svg">
<path d="M0.5 2C0.520833 1.4375 0.71875 0.96875 1.09375 0.59375C1.46875 0.21875 1.9375 0.0208333 2.5 0H14.5C15.0625 0.0208333 15.5312 0.21875 15.9062 0.59375C16.2812 0.96875 16.4792 1.4375 16.5 2V12C16.4792 12.5625 16.2812 13.0312 15.9062 13.4062C15.5312 13.7812 15.0625 13.9792 14.5 14H2.5C1.9375 13.9792 1.46875 13.7812 1.09375 13.4062C0.71875 13.0312 0.520833 12.5625 0.5 12V2ZM3.6875 3.75C3.41667 4.10417 3.4375 4.45833 3.75 4.8125L6.15625 7L3.75 9.1875C3.4375 9.54167 3.41667 9.89583 3.6875 10.25C4.04167 10.5417 4.39583 10.5625 4.75 10.3125L7.75 7.5625C7.91667 7.41667 8 7.21875 8 6.96875C8 6.78125 7.91667 6.60417 7.75 6.4375L4.75 3.6875C4.39583 3.41667 4.04167 3.4375 3.6875 3.75ZM8.25 9.5C7.79167 9.54167 7.54167 9.79167 7.5 10.25C7.54167 10.7083 7.79167 10.9583 8.25 11H12.75C13.2083 10.9583 13.4583 10.7083 13.5 10.25C13.4583 9.79167 13.2083 9.54167 12.75 9.5H8.25Z" fill="white"/>
</svg>
