<svg width="15" height="16" viewBox="0 0 15 16" fill="none" xmlns="http://www.w3.org/2000/svg">
<path d="M11.5 4C11.4792 5.125 11.0938 6.07292 10.3438 6.84375C9.57292 7.59375 8.625 7.97917 7.5 8C6.375 7.97917 5.42708 7.59375 4.65625 6.84375C3.90625 6.07292 3.52083 5.125 3.5 4C3.52083 2.875 3.90625 1.92708 4.65625 1.15625C5.42708 0.40625 6.375 0.0208333 7.5 0C8.625 0.0208333 9.57292 0.40625 10.3438 1.15625C11.0938 1.92708 11.4792 2.875 11.5 4ZM7.03125 11.2188L6 9.5H9L7.96875 11.2188L9 15.0938L10.25 10.0625C11.4792 10.2708 12.4896 10.8333 13.2812 11.75C14.0729 12.6667 14.4792 13.7604 14.5 15.0312C14.5 15.3021 14.4062 15.5312 14.2188 15.7188C14.0312 15.9062 13.8021 16 13.5312 16H1.46875C1.19792 16 0.96875 15.9062 0.78125 15.7188C0.59375 15.5312 0.5 15.3021 0.5 15.0312C0.520833 13.7604 0.927083 12.6667 1.71875 11.75C2.51042 10.8333 3.52083 10.2708 4.75 10.0625L6 15.0938L7.03125 11.2188Z" fill="white"/>
</svg>
