<svg width="81" height="80" viewBox="0 0 81 80" fill="none" xmlns="http://www.w3.org/2000/svg">
<rect x="0.5" width="80" height="80" rx="12" fill="url(#paint0_linear_4258_8771)" fill-opacity="0.1"/>
<path d="M40.4973 22C34.4934 21.9865 28.8784 24.9689 25.5278 29.9509C22.3649 34.6409 25.575 36.5524 32.3361 36.7265C23.8448 36.5089 21.8136 40.176 23.1194 44.8514C25.0128 51.6306 31.2552 57.3652 39.0246 57.9891V31.964C39.0246 29.327 39.0246 26.6683 40.5009 25.1956V22H40.4973ZM35.7457 53.6582C31.0775 52.2654 26.9026 47.5319 26.9026 42.8238C26.9026 39.4904 31.2552 38.239 35.7457 38.239V53.6582ZM35.7457 31.7355V35.33C31.4438 35.33 26.801 34.1693 27.9798 31.9096C29.9112 28.4555 33.2434 26.0069 37.1167 25.1956C35.7239 26.5885 35.7457 28.2969 35.7457 31.7355Z" fill="#00DA92"/>
<path d="M40.5015 22.0001V25.1957C41.985 26.6683 41.985 29.3271 41.985 31.964V58C49.7436 57.3761 55.9896 51.6415 57.8793 44.8514C59.1888 40.1651 57.1539 36.5089 48.6626 36.7156C55.4237 36.5415 58.6374 34.63 55.4745 29.94C52.1199 24.9621 46.5043 21.9842 40.5015 22.0001ZM45.2495 38.2391C49.7581 38.2391 54.0926 39.4904 54.0926 42.8238C54.0926 47.5392 49.9177 52.2545 45.2495 53.6583V38.2391ZM43.8784 25.1812C47.7563 25.9935 51.091 28.4482 53.0189 31.9096C54.2014 34.1694 49.5586 35.3301 45.2531 35.3301V31.7355C45.2495 28.2969 45.2749 26.5885 43.882 25.1957L43.8784 25.1812Z" fill="#00DA92"/>
<defs>
<linearGradient id="paint0_linear_4258_8771" x1="40.5" y1="0" x2="40.5" y2="80" gradientUnits="userSpaceOnUse">
<stop stop-color="#00DA92"/>
<stop offset="1" stop-color="#9747FF"/>
</linearGradient>
</defs>
</svg>
