<svg width="130" height="22" viewBox="0 0 130 22" fill="none" xmlns="http://www.w3.org/2000/svg">
<path d="M27.3525 18.0763V4.36523H34.2857C36.2251 4.36523 38.5945 5.25182 38.4593 7.55695C38.3218 9.45646 35.9125 9.99506 34.4031 9.99506C36.7548 10.1524 38.8693 11.4247 38.8693 14.0113C38.8693 17.0656 37.0097 18.0852 34.2857 18.0852L27.3525 18.0763ZM29.5269 9.9862H33.9731C35.2454 9.9862 36.3824 9.28136 36.3824 8.08668C36.3824 6.83216 35.3052 6.31351 33.9731 6.31351H29.5269V9.9862ZM29.5269 11.8658V16.1169H34.1106C35.6621 16.1169 36.6573 15.6271 36.6573 13.9226C36.6573 12.493 35.549 11.8658 34.1106 11.8658H29.5269Z" fill="white"/>
<path d="M39.23 13.284C39.23 9.85514 41.1494 8.20166 44.4409 8.20166C47.79 8.20166 49.807 9.9438 49.807 13.2995V13.9467H41.2869C41.2869 15.5914 42.6589 16.5134 44.5584 16.5134C46.3005 16.5134 47.3578 15.9061 47.6326 14.8466H49.6474C49.1797 17.2892 47.3777 18.3176 44.5185 18.3176C41.2869 18.3176 39.23 16.5334 39.23 13.284ZM47.6925 12.5393C47.6925 10.9323 46.1409 10.0325 44.4608 10.0325C42.7808 10.0325 41.2669 10.7373 41.2669 12.5193L47.6925 12.5393Z" fill="white"/>
<path d="M56.4467 8.45905H57.3665V10.3187H53.7249V14.4524C53.7249 15.3722 54.0574 16.0394 54.9971 16.0394H57.3665V18.0763H54.3499C52.5302 18.0763 51.5683 16.8417 51.5683 14.8824V10.3187H49.4937V8.45905H55.6288C52.8671 8.45905 51.555 8.41915 51.555 5.65743V4.36523H53.7094V6.73464C53.7049 8.06673 54.5849 8.45905 56.4467 8.45905Z" fill="white"/>
<path d="M64.2197 8.45905H65.1395V10.3187H61.4978V14.4524C61.4978 15.3722 61.8303 16.0394 62.7701 16.0394H65.1395V18.0763H62.1229C60.3032 18.0763 59.3412 16.8417 59.3412 14.8824V10.3187H57.2666V8.45905H63.3907C60.629 8.45905 59.3168 8.41915 59.3168 5.65743V4.36523H61.4712V6.73464C61.4779 8.06673 62.3578 8.45905 64.2197 8.45905Z" fill="white"/>
<path d="M65.1299 13.2832C65.1299 9.85434 67.0493 8.20972 70.3386 8.20972C73.6877 8.20972 75.7069 9.95186 75.7069 13.3076V13.9548H67.1868C67.1868 15.5994 68.5565 16.5215 70.4561 16.5215C72.2004 16.5215 73.2577 15.9142 73.5325 14.8547H75.5495C75.0796 17.2884 73.2776 18.3168 70.4184 18.3168C67.1868 18.3168 65.1299 16.5325 65.1299 13.2832ZM73.5879 12.5385C73.5879 10.9315 72.0364 10.0317 70.3563 10.0317C68.6762 10.0317 67.1602 10.7365 67.1602 12.5185L73.5879 12.5385Z" fill="white"/>
<path d="M83.0376 10.3617H80.9608C78.6889 10.3617 78.4917 11.8313 78.4917 13.4648V18.0795H76.2974V8.30486H78.4651V12.1238C78.4651 9.83201 79.9146 8.28491 81.5992 8.28491H83.031L83.0376 10.3617Z" fill="white"/>
<path d="M84.3022 18.0763V4.36523H91.2376C93.177 4.36523 95.5464 5.25182 95.409 7.55695C95.2715 9.45646 92.8622 9.99506 91.355 9.99506C93.7045 10.1524 95.8212 11.4247 95.8212 14.0113C95.8212 17.0656 93.9594 18.0852 91.2376 18.0852L84.3022 18.0763ZM86.4766 9.9862H90.9228C92.1973 9.9862 93.3321 9.28136 93.3321 8.08668C93.3321 6.83216 92.2549 6.31351 90.9228 6.31351H86.4766V9.9862ZM86.4766 11.8658V16.1169H91.0603C92.6118 16.1169 93.607 15.6271 93.607 13.9226C93.607 12.493 92.4987 11.8658 91.0603 11.8658H86.4766Z" fill="white"/>
<path d="M104.596 8.7042H106.653V17.7917H104.596V13.9328C104.596 17.2243 102.05 18.0865 100.62 18.0865C99.3677 18.0865 96.3511 17.6742 96.3511 14.0126V8.69312H98.4124V13.5693C98.4124 15.2073 99.5627 16.1848 101.247 16.1848C103.009 16.1848 104.596 15.225 104.596 13.5804V8.7042Z" fill="white"/>
<path d="M116.471 8.28904H118.625V16.9665C118.625 20.0696 116.63 22.0001 113.277 22.0001H109.274V20.0806H113.308C115.385 20.0806 116.462 19.1209 116.462 16.9776V14.1449C115.824 17.7489 112.907 18.1767 111.934 18.1767C108.72 18.1767 107.252 16.0023 107.252 13.1631C107.252 10.06 108.837 8.00977 112.069 8.00977C113.283 8.00977 115.85 8.45306 116.477 12.0659L116.471 8.28904ZM112.789 10.0135C111.085 10.0135 109.4 11.0508 109.4 13.1852C109.4 15.2044 111.173 16.2218 112.789 16.2218C114.726 16.2218 116.451 15.2221 116.451 13.1852C116.451 11.0508 114.786 10.0135 112.789 10.0135Z" fill="white"/>
<path d="M121.243 14.9254C121.302 16.0802 122.752 16.4127 124.346 16.4127C125.658 16.4127 127.537 16.2775 127.537 15.238C127.537 14.7681 126.44 14.3381 125.168 14.1807L122.406 13.6709C120.759 13.3784 119.192 12.6536 119.192 11.1065C119.192 9.26459 121.584 8.28491 124.346 8.28491C127.145 8.28491 129.262 9.30449 129.262 11.388H127.282C127.282 10.3507 125.99 9.8985 124.346 9.8985C123.111 9.8985 121.269 10.1534 121.269 11.0555C121.269 11.603 122.034 11.9753 123.444 12.1637L126.755 12.771C128.262 13.0259 129.517 13.8083 129.517 15.1604C129.517 17.4323 127.282 18.0795 124.346 18.0795C121.464 18.0795 119.232 17.1574 119.232 14.9254H121.243Z" fill="white"/>
<path d="M10.8406 2.79119e-05C7.17185 -0.00822512 3.7407 1.81418 1.69328 4.85855C-0.239478 7.72445 1.7221 8.89252 5.85359 8.99891C0.664841 8.86593 -0.576381 11.1068 0.221547 13.9638C1.37854 18.1064 5.19308 21.6106 9.94075 21.9918V6.08869C9.94075 4.47732 9.94076 2.85265 10.8429 1.95276V2.79119e-05H10.8406ZM7.93707 19.3454C5.08448 18.4943 2.53332 15.6018 2.53332 12.7248C2.53332 10.6879 5.19308 9.92318 7.93707 9.92318V19.3454ZM7.93707 5.94905V8.14557C5.30834 8.14557 2.47126 7.43631 3.19161 6.05545C4.37179 3.94478 6.40805 2.44851 8.77489 1.95276C7.92377 2.80389 7.93707 3.84784 7.93707 5.94905Z" fill="#00DA92"/>
<path d="M10.8433 3.84311e-05V1.95278C11.7498 2.85267 11.7498 4.47734 11.7498 6.08871V21.9985C16.4908 21.6173 20.3076 18.113 21.4624 13.9638C22.2625 11.1001 21.0191 8.86594 15.8303 8.99228C19.9618 8.88589 21.9256 7.71781 19.9928 4.85192C17.9429 1.81003 14.5114 -0.00964203 10.8433 3.84311e-05ZM13.7446 9.9232C16.4997 9.9232 19.1484 10.6879 19.1484 12.7248C19.1484 15.6062 16.5972 18.4876 13.7446 19.3454V9.9232ZM12.9068 1.94392C15.2765 2.44029 17.3142 3.94031 18.4923 6.05546C19.2149 7.43632 16.3778 8.14559 13.7468 8.14559V5.94907C13.7446 3.84786 13.7601 2.80391 12.909 1.95278L12.9068 1.94392Z" fill="#00DA92"/>
</svg>
