<svg width="204" height="225" viewBox="0 0 204 225" fill="none" xmlns="http://www.w3.org/2000/svg">
<path d="M0.439442 219.14C0.193832 219.635 0.395731 220.235 0.890397 220.481L8.95144 224.483C9.4461 224.729 10.0462 224.527 10.2918 224.032C10.5374 223.537 10.3355 222.937 9.84087 222.692L2.6755 219.134L6.23324 211.969C6.47885 211.474 6.27695 210.874 5.78228 210.628C5.28762 210.383 4.68751 210.585 4.4419 211.079L0.439442 219.14ZM1.65399 220.533C18.8875 214.735 30.3002 206.297 38.1186 196.704C45.9286 187.122 50.1047 176.445 52.9554 166.248C54.3798 161.152 55.4777 156.159 56.5268 151.487C57.5788 146.802 58.5796 142.452 59.8155 138.582C62.2925 130.826 65.6321 125.264 71.8926 122.879L71.1806 121.01C64.0395 123.731 60.439 130.055 57.9103 137.974C56.6434 141.941 55.6248 146.376 54.5754 151.049C53.5229 155.736 52.4368 160.674 51.0292 165.709C48.2158 175.774 44.1351 186.157 36.5683 195.441C29.0101 204.714 17.9262 212.948 1.01624 218.637L1.65399 220.533ZM71.8926 122.879C85.182 117.817 99.4375 116.158 113.991 113.466C128.491 110.784 143.173 107.085 156.968 97.8881L155.859 96.224C142.409 105.19 128.054 108.831 113.627 111.499C99.2548 114.158 84.6945 115.862 71.1806 121.01L71.8926 122.879ZM156.968 97.8881C160.506 95.5296 162.655 92.93 163.791 90.059C164.922 87.2001 165.007 84.1753 164.601 81.0388C164.198 77.9169 163.294 74.5959 162.387 71.1515C161.474 67.682 160.547 64.0502 160.044 60.2009C159.043 52.5449 159.717 44.0202 165.671 34.4538C171.648 24.8479 182.994 14.1182 203.503 2.19483L202.497 0.465816C181.843 12.474 170.191 23.4053 163.973 33.3971C157.73 43.4284 157.012 52.4381 158.06 60.4602C158.582 64.45 159.54 68.1932 160.453 71.6606C161.372 75.153 162.235 78.3306 162.618 81.2952C162.999 84.2451 162.892 86.8944 161.931 89.3232C160.975 91.74 159.132 94.0416 155.859 96.224L156.968 97.8881Z" fill="white"/>
</svg>
