<svg width="111" height="51" viewBox="0 0 111 51" fill="none" xmlns="http://www.w3.org/2000/svg">
<g clip-path="url(#clip0_4864_5749)">
<path d="M47.9827 1.24597H0.839844V50.8888H47.9827V1.24597Z" fill="#003399"/>
<path d="M16.7453 11.4127L17.7839 11.5764C17.8752 11.5913 17.9377 11.6434 17.9714 11.7326C17.9954 11.8269 17.9762 11.9087 17.9137 11.9781L17.1636 12.737L17.3367 13.8306C17.3511 13.9249 17.3199 14.0018 17.2429 14.0613C17.166 14.1158 17.0867 14.1208 17.0049 14.0761L16.0745 13.5703L15.1513 14.0761C15.0648 14.1208 14.983 14.1158 14.9061 14.0613C14.834 14.0018 14.8027 13.9249 14.8123 13.8306L14.9927 12.737L14.2425 11.9781C14.1752 11.9087 14.156 11.8269 14.1849 11.7326C14.2137 11.6434 14.2738 11.5913 14.3652 11.5764L15.4038 11.4127L15.8653 10.4307C15.9134 10.3464 15.9832 10.3017 16.0745 10.2968C16.1707 10.3017 16.2404 10.3464 16.2837 10.4307L16.7453 11.4127Z" fill="#F8D12E"/>
<path d="M17.0919 38.7396L18.1305 38.9035C18.2219 38.9182 18.2844 38.9703 18.318 39.0596C18.3421 39.1539 18.3229 39.2357 18.2604 39.3053L17.5103 40.0639L17.6834 41.1578C17.6978 41.2518 17.6665 41.3289 17.5896 41.3882C17.5127 41.4428 17.4333 41.4478 17.3516 41.4032L16.4212 40.8971L15.498 41.4032C15.4114 41.4478 15.3297 41.4428 15.2528 41.3882C15.1807 41.3289 15.1494 41.2518 15.159 41.1578L15.3393 40.0639L14.5892 39.3053C14.5219 39.2357 14.5027 39.1539 14.5315 39.0596C14.5604 38.9703 14.6205 38.9182 14.7118 38.9035L15.7504 38.7396L16.212 37.7578C16.2601 37.6735 16.3298 37.6289 16.4212 37.6239C16.5174 37.6289 16.5871 37.6735 16.6303 37.7578L17.0919 38.7396Z" fill="#F8D12E"/>
<path d="M11.5763 16.6295L12.6149 16.7932C12.7063 16.808 12.7688 16.8601 12.8024 16.9494C12.8265 17.0437 12.8073 17.1255 12.7448 17.1949L11.9946 17.9538L12.1678 19.0474C12.1822 19.1417 12.1509 19.2185 12.074 19.278C11.997 19.3326 11.9177 19.3376 11.836 19.2929L10.9056 18.787L9.98236 19.2929C9.89583 19.3376 9.81408 19.3326 9.73715 19.278C9.66504 19.2185 9.63379 19.1417 9.6434 19.0474L9.82372 17.9538L9.07361 17.1949C9.00629 17.1255 8.98708 17.0437 9.0159 16.9494C9.04475 16.8601 9.10486 16.808 9.19622 16.7932L10.2348 16.6295L10.6964 15.6474C10.7445 15.5632 10.8142 15.5185 10.9056 15.5135C11.0017 15.5185 11.0715 15.5632 11.1147 15.6474L11.5763 16.6295Z" fill="#F8D12E"/>
<path d="M9.12712 25.2786L10.1657 25.4422C10.2571 25.4571 10.3196 25.5092 10.3532 25.5985C10.3773 25.6927 10.3581 25.7746 10.2955 25.844L9.54544 26.6028L9.71852 27.6965C9.73294 27.7907 9.70169 27.8676 9.62477 27.9271C9.54784 27.9817 9.46852 27.9866 9.38677 27.942L8.45637 27.4361L7.53316 27.942C7.44662 27.9866 7.36487 27.9817 7.28794 27.9271C7.21584 27.8676 7.18455 27.7907 7.19419 27.6965L7.37448 26.6028L6.62441 25.844C6.55709 25.7746 6.53784 25.6927 6.56669 25.5985C6.59555 25.5092 6.65566 25.4571 6.74702 25.4422L7.78559 25.2786L8.24719 24.2965C8.29527 24.2122 8.36502 24.1676 8.45637 24.1626C8.55252 24.1676 8.62223 24.2122 8.66552 24.2965L9.12712 25.2786Z" fill="#F8D12E"/>
<path d="M11.9386 33.9277L12.9772 34.0914C13.0686 34.1063 13.1311 34.1583 13.1648 34.2476C13.1888 34.3419 13.1695 34.4237 13.107 34.4932L12.3569 35.252L12.53 36.3456C12.5445 36.4399 12.5132 36.5168 12.4363 36.5763C12.3594 36.6308 12.28 36.6358 12.1983 36.5912L11.2679 36.0853L10.3447 36.5912C10.2581 36.6358 10.1764 36.6308 10.0995 36.5763C10.0273 36.5168 9.99608 36.4399 10.0057 36.3456L10.186 35.252L9.43593 34.4932C9.36861 34.4237 9.34936 34.3419 9.37822 34.2476C9.40707 34.1583 9.46718 34.1063 9.55854 34.0914L10.5971 33.9277L11.0587 32.9457C11.1068 32.8614 11.1765 32.8167 11.2679 32.8118C11.364 32.8167 11.4338 32.8614 11.477 32.9457L11.9386 33.9277Z" fill="#F8D12E"/>
<path d="M33.4093 11.4127L34.4479 11.5764C34.5393 11.5913 34.6018 11.6434 34.6354 11.7326C34.6595 11.8269 34.6402 11.9087 34.5777 11.9781L33.8276 12.737L34.0007 13.8306C34.0152 13.9249 33.9839 14.0018 33.907 14.0613C33.8301 14.1158 33.7507 14.1208 33.669 14.0761L32.7386 13.5703L31.8154 14.0761C31.7288 14.1208 31.6471 14.1158 31.5702 14.0613C31.498 14.0018 31.4668 13.9249 31.4764 13.8306L31.6567 12.737L30.9066 11.9781C30.8393 11.9087 30.8201 11.8269 30.8489 11.7326C30.8778 11.6434 30.9379 11.5913 31.0292 11.5764L32.0678 11.4127L32.5294 10.4307C32.5775 10.3464 32.6472 10.3017 32.7386 10.2968C32.8347 10.3017 32.9045 10.3464 32.9477 10.4307L33.4093 11.4127Z" fill="#F8D12E"/>
<path d="M33.0675 38.7396L34.1061 38.9035C34.1975 38.9182 34.26 38.9703 34.2936 39.0596C34.3177 39.1539 34.2985 39.2357 34.236 39.3053L33.4858 40.0639L33.659 41.1578C33.6734 41.2518 33.6421 41.3289 33.5652 41.3882C33.4882 41.4428 33.4089 41.4478 33.3272 41.4032L32.3968 40.8971L31.4736 41.4032C31.387 41.4478 31.3053 41.4428 31.2283 41.3882C31.1562 41.3289 31.125 41.2518 31.1346 41.1578L31.3149 40.0639L30.5648 39.3053C30.4975 39.2357 30.4783 39.1539 30.5071 39.0596C30.536 38.9703 30.5961 38.9182 30.6874 38.9035L31.726 38.7396L32.1876 37.7578C32.2357 37.6735 32.3054 37.6289 32.3968 37.6239C32.493 37.6289 32.5627 37.6735 32.6059 37.7578L33.0675 38.7396Z" fill="#F8D12E"/>
<path d="M38.4973 16.6295L39.5359 16.7932C39.6273 16.808 39.6898 16.8601 39.7234 16.9494C39.7473 17.0437 39.7281 17.1255 39.6656 17.1949L38.9156 17.9538L39.0888 19.0474C39.1031 19.1417 39.072 19.2185 38.9948 19.278C38.9181 19.3326 38.8388 19.3376 38.757 19.2929L37.8266 18.787L36.9034 19.2929C36.8166 19.3376 36.7348 19.3326 36.6581 19.278C36.5859 19.2185 36.5548 19.1417 36.5641 19.0474L36.7445 17.9538L35.9945 17.1949C35.9272 17.1255 35.908 17.0437 35.9368 16.9494C35.9657 16.8601 36.0258 16.808 36.1171 16.7932L37.1556 16.6295L37.6173 15.6474C37.6656 15.5632 37.7352 15.5185 37.8266 15.5135C37.9227 15.5185 37.9923 15.5632 38.0356 15.6474L38.4973 16.6295Z" fill="#F8D12E"/>
<path d="M41.0324 25.2786L42.0709 25.4422C42.1624 25.4571 42.2249 25.5092 42.2584 25.5985C42.2824 25.6927 42.2634 25.7746 42.2009 25.844L41.4506 26.6028L41.6238 27.6965C41.6381 27.7907 41.607 27.8676 41.5299 27.9271C41.4531 27.9817 41.3738 27.9866 41.292 27.942L40.3617 27.4361L39.4384 27.942C39.352 27.9866 39.2702 27.9817 39.1931 27.9271C39.1209 27.8676 39.0899 27.7907 39.0995 27.6965L39.2799 26.6028L38.5295 25.844C38.4624 25.7746 38.4431 25.6927 38.472 25.5985C38.5009 25.5092 38.5609 25.4571 38.6524 25.4422L39.6909 25.2786L40.1524 24.2965C40.2006 24.2122 40.2702 24.1676 40.3617 24.1626C40.4577 24.1676 40.5274 24.2122 40.5709 24.2965L41.0324 25.2786Z" fill="#F8D12E"/>
<path d="M38.3379 33.9277L39.3765 34.0914C39.4679 34.1063 39.5304 34.1583 39.5643 34.2476C39.5883 34.3419 39.569 34.4237 39.5065 34.4932L38.7565 35.252L38.9293 36.3456C38.944 36.4399 38.9125 36.5168 38.8358 36.5763C38.7586 36.6308 38.6793 36.6358 38.5975 36.5912L37.6672 36.0853L36.744 36.5912C36.6575 36.6358 36.5758 36.6308 36.499 36.5763C36.4268 36.5168 36.3954 36.4399 36.405 36.3456L36.5854 35.252L35.8353 34.4932C35.768 34.4237 35.7488 34.3419 35.7776 34.2476C35.8065 34.1583 35.8666 34.1063 35.9579 34.0914L36.9965 33.9277L37.4583 32.9457C37.5061 32.8614 37.5758 32.8167 37.6672 32.8118C37.7636 32.8167 37.8333 32.8614 37.8765 32.9457L38.3379 33.9277Z" fill="#F8D12E"/>
<path d="M25.0802 9.32629L26.1188 9.48993C26.2102 9.50483 26.2727 9.5569 26.3064 9.64618C26.3304 9.74043 26.3111 9.82226 26.2486 9.89169L25.4985 10.6505L25.6716 11.7442C25.6861 11.8384 25.6548 11.9153 25.5779 11.9748C25.501 12.0294 25.4216 12.0344 25.3399 11.9897L24.4095 11.4838L23.4863 11.9897C23.3997 12.0344 23.318 12.0294 23.2411 11.9748C23.1689 11.9153 23.1377 11.8384 23.1473 11.7442L23.3276 10.6505L22.5775 9.89169C22.5102 9.82226 22.491 9.74043 22.5198 9.64618C22.5487 9.5569 22.6088 9.50483 22.7001 9.48993L23.7387 9.32629L24.2003 8.34422C24.2484 8.2599 24.3181 8.21529 24.4095 8.21033C24.5056 8.21529 24.5754 8.2599 24.6186 8.34422L25.0802 9.32629Z" fill="#F8D12E"/>
<path d="M25.0802 41.2309L26.1188 41.3945C26.2102 41.4095 26.2727 41.4617 26.3064 41.5509C26.3304 41.6452 26.3111 41.727 26.2486 41.7963L25.4985 42.5552L25.6716 43.6488C25.6861 43.7431 25.6548 43.8199 25.5779 43.8795C25.501 43.9342 25.4216 43.9392 25.3399 43.8945L24.4095 43.3884L23.4863 43.8945C23.3997 43.9392 23.318 43.9342 23.2411 43.8795C23.1689 43.8199 23.1377 43.7431 23.1473 43.6488L23.3276 42.5552L22.5775 41.7963C22.5102 41.727 22.491 41.6452 22.5198 41.5509C22.5487 41.4617 22.6088 41.4095 22.7001 41.3945L23.7387 41.2309L24.2003 40.2488C24.2484 40.1645 24.3181 40.1199 24.4095 40.1149C24.5056 40.1199 24.5754 40.1645 24.6186 40.2488L25.0802 41.2309Z" fill="#F8D12E"/>
<path d="M22.0004 25.1746V24.371C22.0227 23.6902 22.2571 23.121 22.7035 22.6634C23.1611 22.217 23.7303 21.9826 24.4111 21.9603C25.0919 21.9826 25.6611 22.217 26.1187 22.6634C26.5651 23.121 26.7995 23.6902 26.8218 24.371V25.1746H27.0897C27.391 25.1858 27.6421 25.2918 27.843 25.4927C28.0439 25.6936 28.15 25.9447 28.1611 26.246V29.4603C28.15 29.7616 28.0439 30.0128 27.843 30.2136C27.6421 30.4145 27.391 30.5206 27.0897 30.5318H21.7326C21.4312 30.5206 21.1801 30.4145 20.9792 30.2136C20.7783 30.0128 20.6723 29.7616 20.6611 29.4603V26.246C20.6723 25.9447 20.7783 25.6936 20.9792 25.4927C21.1801 25.2918 21.4312 25.1858 21.7326 25.1746H22.0004ZM23.0718 25.1746H25.7504V24.371C25.7392 23.9916 25.6109 23.6735 25.3653 23.4168C25.1087 23.1713 24.7906 23.0429 24.4111 23.0318C24.0317 23.0429 23.7136 23.1713 23.4569 23.4168C23.2113 23.6735 23.083 23.9916 23.0718 24.371V25.1746Z" fill="#00DA92"/>
<path d="M110.125 1.24597H47.9824V50.8888H110.125V1.24597Z" fill="white"/>
<path d="M67.8237 20.307C67.7719 20.1152 67.6958 19.9463 67.5955 19.8002C67.4951 19.651 67.3716 19.5247 67.2255 19.4212C67.0794 19.3177 66.9123 19.2401 66.7233 19.1883C66.5348 19.1336 66.3276 19.1062 66.1026 19.1062C65.6491 19.1062 65.2562 19.2157 64.9244 19.4349C64.5958 19.6541 64.3416 19.9737 64.1619 20.3937C63.9823 20.8107 63.8926 21.3175 63.8926 21.9141C63.8926 22.5137 63.9794 23.0251 64.153 23.4482C64.3262 23.8713 64.5776 24.1939 64.9062 24.4161C65.2351 24.6383 65.6337 24.7494 66.1026 24.7494C66.5166 24.7494 66.8666 24.6825 67.1526 24.5485C67.4419 24.4116 67.6608 24.2183 67.8101 23.9687C67.9591 23.7191 68.0337 23.4253 68.0337 23.0875L68.4537 23.1377H66.1801V21.4895H70.2116V22.7268C70.2116 23.5638 70.0337 24.2807 69.6773 24.8773C69.3244 25.4739 68.8373 25.932 68.2166 26.2516C67.5983 26.5712 66.8876 26.731 66.0841 26.731C65.1923 26.731 64.4087 26.5377 63.733 26.1511C63.0573 25.7646 62.5305 25.2136 62.153 24.4983C61.7755 23.78 61.5869 22.9277 61.5869 21.9415C61.5869 21.1745 61.7012 20.4941 61.9294 19.9006C62.1576 19.304 62.4758 18.7987 62.8837 18.3848C63.2944 17.9708 63.7694 17.6573 64.308 17.4442C64.8498 17.2312 65.433 17.1246 66.0569 17.1246C66.5987 17.1246 67.1023 17.2022 67.568 17.3575C68.0369 17.5127 68.4508 17.7319 68.8098 18.015C69.1723 18.298 69.4658 18.6344 69.6912 19.024C69.9162 19.4136 70.0566 19.8412 70.1112 20.307H67.8237ZM74.9998 26.6031H71.5437V17.2525H74.9955C75.948 17.2525 76.7683 17.4397 77.4562 17.8141C78.1473 18.1854 78.6798 18.7211 79.0544 19.4212C79.4287 20.1182 79.6158 20.9522 79.6158 21.9232C79.6158 22.8972 79.4287 23.7343 79.0544 24.4344C78.683 25.1345 78.1519 25.6717 77.4608 26.0461C76.7698 26.4175 75.9498 26.6031 74.9998 26.6031ZM73.8037 24.6764H74.9133C75.4369 24.6764 75.8798 24.5881 76.2419 24.4116C76.6069 24.232 76.8826 23.9413 77.0683 23.5395C77.2569 23.1347 77.3512 22.5959 77.3512 21.9232C77.3512 21.2505 77.2569 20.7148 77.0683 20.3161C76.8794 19.9143 76.6008 19.6251 76.2326 19.4486C75.8673 19.269 75.4169 19.1792 74.8812 19.1792H73.8037V24.6764ZM80.9355 26.6031V17.2525H84.798C85.498 17.2525 86.1023 17.3895 86.6105 17.6634C87.1219 17.9343 87.5162 18.3132 87.7933 18.8002C88.0701 19.2842 88.2087 19.8473 88.2087 20.4896C88.2087 21.1349 88.0673 21.6995 87.7841 22.1835C87.5041 22.6644 87.1037 23.0373 86.5833 23.3021C86.0626 23.5669 85.4448 23.6993 84.7294 23.6993H82.3462V21.9187H84.3094C84.6505 21.9187 84.9351 21.8593 85.1633 21.7406C85.3948 21.6219 85.5698 21.456 85.6883 21.2429C85.8069 21.0268 85.8666 20.7757 85.8666 20.4896C85.8666 20.2004 85.8069 19.9508 85.6883 19.7408C85.5698 19.5277 85.3948 19.3634 85.1633 19.2477C84.9319 19.132 84.6473 19.0742 84.3094 19.0742H83.1955V26.6031H80.9355ZM89.3226 26.6031V17.2525H93.1855C93.8855 17.2525 94.4898 17.3788 94.998 17.6314C95.5094 17.881 95.9033 18.2402 96.1805 18.709C96.4573 19.1746 96.5958 19.7271 96.5958 20.3663C96.5958 21.0146 96.4544 21.5656 96.1712 22.0191C95.8883 22.4696 95.4866 22.8136 94.9658 23.051C94.4455 23.2853 93.8291 23.4025 93.1169 23.4025H90.6741V21.6219H92.6969C93.0376 21.6219 93.3223 21.5777 93.5505 21.4895C93.7819 21.3982 93.9569 21.2612 94.0755 21.0786C94.1944 20.8929 94.2537 20.6555 94.2537 20.3663C94.2537 20.0771 94.1944 19.8382 94.0755 19.6495C93.9569 19.4577 93.7819 19.3147 93.5505 19.2203C93.3194 19.1229 93.0348 19.0742 92.6969 19.0742H91.5826V26.6031H89.3226ZM94.5869 22.3296L96.9155 26.6031H94.4501L92.1673 22.3296H94.5869Z" fill="black"/>
<path d="M64.8074 33.8494H64.0485C64.027 33.725 63.987 33.6147 63.9288 33.5187C63.8706 33.4213 63.7981 33.3387 63.7117 33.2711C63.6252 33.2034 63.5263 33.1527 63.4152 33.1189C63.306 33.0837 63.1874 33.0662 63.0603 33.0662C62.8345 33.0662 62.6342 33.1229 62.4595 33.2366C62.2852 33.3489 62.1485 33.5139 62.0499 33.7317C61.951 33.9482 61.9017 34.2127 61.9017 34.5252C61.9017 34.8431 61.951 35.1109 62.0499 35.3287C62.1499 35.5452 62.2863 35.7089 62.4595 35.8198C62.6342 35.9294 62.8338 35.9842 63.0581 35.9842C63.1827 35.9842 63.2992 35.9679 63.4074 35.9354C63.5167 35.9016 63.6149 35.8523 63.7017 35.7873C63.7895 35.7224 63.8631 35.6426 63.9227 35.5479C63.9835 35.4532 64.0256 35.3449 64.0485 35.2232L64.8074 35.2273C64.7792 35.4248 64.7174 35.6101 64.6228 35.7833C64.5295 35.9564 64.407 36.1093 64.2556 36.2419C64.1038 36.3731 63.9267 36.4759 63.7238 36.5503C63.521 36.6234 63.2956 36.6599 63.0481 36.6599C62.6827 36.6599 62.3567 36.5753 62.0699 36.4062C61.7831 36.2371 61.5574 35.9929 61.3924 35.6737C61.2274 35.3544 61.1445 34.9716 61.1445 34.5252C61.1445 34.0774 61.2277 33.6945 61.3942 33.3766C61.5606 33.0573 61.7874 32.8132 62.0742 32.6441C62.361 32.475 62.6856 32.3904 63.0481 32.3904C63.2795 32.3904 63.4945 32.4229 63.6935 32.4878C63.8924 32.5528 64.0695 32.6481 64.2249 32.7739C64.3806 32.8984 64.5085 33.0513 64.6085 33.2326C64.7099 33.4125 64.7763 33.6181 64.8074 33.8494ZM66.8238 36.6638C66.5195 36.6638 66.256 36.597 66.0327 36.4631C65.8095 36.3291 65.6363 36.1418 65.5131 35.901C65.3913 35.6602 65.3306 35.3788 65.3306 35.0568C65.3306 34.7348 65.3913 34.4528 65.5131 34.2106C65.6363 33.9685 65.8095 33.7804 66.0327 33.6465C66.256 33.5126 66.5195 33.4456 66.8238 33.4456C67.1285 33.4456 67.392 33.5126 67.6152 33.6465C67.8385 33.7804 68.011 33.9685 68.1327 34.2106C68.256 34.4528 68.3174 34.7348 68.3174 35.0568C68.3174 35.3788 68.256 35.6602 68.1327 35.901C68.011 36.1418 67.8385 36.3291 67.6152 36.4631C67.392 36.597 67.1285 36.6638 66.8238 36.6638ZM66.8281 36.0755C66.9931 36.0755 67.131 36.0302 67.242 35.9395C67.3528 35.8475 67.4356 35.7244 67.4895 35.5702C67.5449 35.416 67.5727 35.2442 67.5727 35.0548C67.5727 34.864 67.5449 34.6916 67.4895 34.5373C67.4356 34.3818 67.3528 34.258 67.242 34.166C67.131 34.074 66.9931 34.028 66.8281 34.028C66.6588 34.028 66.5181 34.074 66.406 34.166C66.2949 34.258 66.2117 34.3818 66.1563 34.5373C66.1024 34.6916 66.0752 34.864 66.0752 35.0548C66.0752 35.2442 66.1024 35.416 66.1563 35.5702C66.2117 35.7244 66.2949 35.8475 66.406 35.9395C66.5181 36.0302 66.6588 36.0755 66.8281 36.0755ZM68.941 36.6031V33.4862H69.6431V34.0158H69.6795C69.7445 33.8372 69.852 33.6979 70.0024 33.5978C70.1524 33.4963 70.3317 33.4456 70.5399 33.4456C70.751 33.4456 70.9288 33.497 71.0738 33.5998C71.2199 33.7013 71.3227 33.8399 71.382 34.0158H71.4145C71.4835 33.8427 71.5999 33.7047 71.7635 33.6019C71.9288 33.4977 72.1242 33.4456 72.3499 33.4456C72.6367 33.4456 72.871 33.5362 73.052 33.7175C73.2335 33.8988 73.3242 34.1633 73.3242 34.5109V36.6031H72.5874V34.6246C72.5874 34.4311 72.536 34.2898 72.4331 34.2005C72.3306 34.1098 72.2045 34.0645 72.056 34.0645C71.8785 34.0645 71.7399 34.12 71.6399 34.2309C71.541 34.3405 71.4917 34.4832 71.4917 34.6591V36.6031H70.7713V34.5942C70.7713 34.4332 70.7227 34.3047 70.6252 34.2086C70.5292 34.1126 70.4035 34.0645 70.2478 34.0645C70.1424 34.0645 70.0463 34.0916 69.9595 34.1457C69.8731 34.1984 69.8042 34.2735 69.7528 34.3709C69.7013 34.467 69.6756 34.5793 69.6756 34.7078V36.6031H68.941ZM74.0692 37.772V33.4862H74.7917V34.0016H74.8342C74.872 33.9259 74.9256 33.8454 74.9945 33.7601C75.0635 33.6736 75.157 33.5998 75.2745 33.5389C75.3924 33.4767 75.5424 33.4456 75.7252 33.4456C75.966 33.4456 76.1831 33.5072 76.3767 33.6303C76.5713 33.752 76.7256 33.9326 76.8392 34.1721C76.9542 34.4102 77.0117 34.7024 77.0117 35.0487C77.0117 35.3909 76.9556 35.6818 76.8431 35.9213C76.731 36.1607 76.5781 36.3433 76.3845 36.4692C76.1913 36.5949 75.972 36.6577 75.727 36.6577C75.5485 36.6577 75.4006 36.6281 75.2827 36.5686C75.1652 36.5091 75.0702 36.4373 74.9988 36.3535C74.9285 36.2683 74.8735 36.1878 74.8342 36.112H74.8038V37.772H74.0692ZM74.7895 35.0446C74.7895 35.2462 74.8181 35.4227 74.8749 35.5743C74.9331 35.7258 75.0163 35.8442 75.1245 35.9294C75.2342 36.0132 75.3667 36.0552 75.5224 36.0552C75.6845 36.0552 75.8206 36.0119 75.9302 35.9253C76.0395 35.8374 76.122 35.7177 76.1777 35.5662C76.2345 35.4133 76.2627 35.2394 76.2627 35.0446C76.2627 34.8512 76.2352 34.6794 76.1795 34.5292C76.1242 34.3791 76.0417 34.2613 75.932 34.1761C75.8224 34.0909 75.686 34.0483 75.5224 34.0483C75.3652 34.0483 75.232 34.0896 75.1224 34.1721C75.0127 34.2546 74.9295 34.3703 74.8727 34.5191C74.8174 34.6679 74.7895 34.8431 74.7895 35.0446ZM78.3752 32.4472V36.6031H77.6406V32.4472H78.3752ZM79.1306 36.6031V33.4862H79.8652V36.6031H79.1306ZM79.4999 33.0438C79.3838 33.0438 79.2835 33.0053 79.1995 32.9282C79.116 32.8497 79.0738 32.7557 79.0738 32.6461C79.0738 32.5352 79.116 32.4412 79.1995 32.364C79.2835 32.2856 79.3838 32.2463 79.4999 32.2463C79.6177 32.2463 79.7177 32.2856 79.8002 32.364C79.8842 32.4412 79.9263 32.5352 79.9263 32.6461C79.9263 32.7557 79.8842 32.8497 79.8002 32.9282C79.7177 33.0053 79.6177 33.0438 79.4999 33.0438ZM81.5174 36.6659C81.3199 36.6659 81.142 36.6308 80.9838 36.5604C80.827 36.4888 80.7024 36.3832 80.6106 36.2439C80.5199 36.1046 80.4745 35.9328 80.4745 35.7285C80.4745 35.5526 80.507 35.4072 80.572 35.2922C80.637 35.1772 80.7256 35.0852 80.8377 35.0162C80.9499 34.9472 81.0767 34.8952 81.2174 34.86C81.3592 34.8234 81.506 34.7971 81.6578 34.7808C81.8403 34.7619 81.9885 34.745 82.102 34.7301C82.2156 34.7139 82.2981 34.6895 82.3495 34.6571C82.4024 34.6232 82.4288 34.5712 82.4288 34.5008V34.4886C82.4288 34.3358 82.3835 34.2174 82.2927 34.1335C82.202 34.0496 82.0717 34.0077 81.901 34.0077C81.7213 34.0077 81.5785 34.0469 81.4727 34.1254C81.3688 34.2039 81.2985 34.2965 81.262 34.4034L80.576 34.306C80.6302 34.1166 80.7195 33.9583 80.8438 33.8312C80.9685 33.7027 81.1206 33.6066 81.3006 33.543C81.4802 33.4781 81.6792 33.4456 81.897 33.4456C82.047 33.4456 82.1967 33.4632 82.3456 33.4984C82.4942 33.5336 82.6302 33.5917 82.7535 33.6729C82.8763 33.7527 82.9752 33.8616 83.0495 33.9996C83.1252 34.1376 83.1631 34.3101 83.1631 34.5171V36.6031H82.457V36.1749H82.4327C82.3881 36.2615 82.3252 36.3427 82.2442 36.4184C82.1642 36.4928 82.0635 36.553 81.9417 36.599C81.8213 36.6438 81.6799 36.6659 81.5174 36.6659ZM81.7085 36.1262C81.8556 36.1262 81.9835 36.0971 82.0917 36.0389C82.1999 35.9794 82.2831 35.901 82.3413 35.8036C82.401 35.7062 82.4306 35.6 82.4306 35.485V35.1177C82.4078 35.1366 82.3685 35.1542 82.3131 35.1704C82.2588 35.1867 82.1981 35.2009 82.1302 35.2131C82.0627 35.2252 81.9956 35.2361 81.9295 35.2455C81.8631 35.255 81.8056 35.2631 81.757 35.2699C81.6474 35.2848 81.5492 35.3091 81.4627 35.3429C81.3763 35.3768 81.3077 35.4241 81.2577 35.485C81.2077 35.5445 81.1827 35.6216 81.1827 35.7163C81.1827 35.8516 81.232 35.9537 81.331 36.0227C81.4295 36.0917 81.5556 36.1262 81.7085 36.1262ZM84.6363 34.7768V36.6031H83.902V33.4862H84.6042V34.0158H84.6406C84.7124 33.8413 84.8267 33.7027 84.9835 33.5998C85.1417 33.497 85.3374 33.4456 85.5699 33.4456C85.7849 33.4456 85.9724 33.4916 86.132 33.5836C86.2931 33.6756 86.4174 33.8088 86.5052 33.9833C86.5945 34.1579 86.6385 34.3696 86.6374 34.6185V36.6031H85.9028V34.7321C85.9028 34.5238 85.8485 34.3608 85.7402 34.2431C85.6335 34.1254 85.4852 34.0666 85.296 34.0666C85.1674 34.0666 85.0531 34.0949 84.9531 34.1518C84.8542 34.2072 84.7763 34.2877 84.7195 34.3933C84.6642 34.4988 84.6363 34.6266 84.6363 34.7768ZM88.9406 33.4862V34.0544H87.1488V33.4862H88.9406ZM87.591 32.7394H88.3256V35.6656C88.3256 35.7643 88.3406 35.8401 88.3702 35.8928C88.4013 35.9443 88.442 35.9794 88.492 35.9984C88.542 36.0173 88.5974 36.0268 88.6585 36.0268C88.7045 36.0268 88.7463 36.0234 88.7842 36.0166C88.8235 36.0099 88.8531 36.0038 88.8735 35.9984L88.9974 36.5726C88.9581 36.5862 88.902 36.6011 88.8288 36.6173C88.757 36.6335 88.6692 36.643 88.5649 36.6456C88.381 36.6509 88.2153 36.6234 88.0677 36.5625C87.9206 36.5003 87.8035 36.4042 87.7167 36.2743C87.6317 36.1445 87.5895 35.9821 87.591 35.7873V32.7394Z" fill="black"/>
</g>
<defs>
<clipPath id="clip0_4864_5749">
<rect x="0.678711" y="0.929199" width="109.643" height="50" rx="12" fill="white"/>
</clipPath>
</defs>
</svg>
