<svg width="115" height="32" viewBox="0 0 115 32" fill="none" xmlns="http://www.w3.org/2000/svg">
<path d="M20.9829 1.36593V25.2754H16.6166L6.21458 10.2269H6.03946V25.2754H0.984375V1.36593H5.42071L15.741 16.4028H15.9512V1.36593H20.9829Z" fill="white"/>
<path d="M33.2383 25.6257C31.3937 25.6257 29.806 25.2521 28.4751 24.5049C27.152 23.75 26.1324 22.6837 25.4163 21.3061C24.7003 19.9207 24.3423 18.2824 24.3423 16.3911C24.3423 14.5465 24.7003 12.9276 25.4163 11.5345C26.1324 10.1413 27.1403 9.05558 28.44 8.27727C29.7476 7.49897 31.2809 7.10981 33.0398 7.10981C34.2229 7.10981 35.3242 7.3005 36.3437 7.68187C37.3711 8.05545 38.2661 8.61973 39.0289 9.37468C39.7994 10.1296 40.3987 11.0792 40.8268 12.2233C41.2548 13.3596 41.4689 14.6905 41.4689 16.216V17.5819H26.3269V14.4998H36.7874C36.7874 13.7838 36.6317 13.1495 36.3204 12.5969C36.0091 12.0443 35.5771 11.6123 35.0245 11.301C34.4797 10.9819 33.8454 10.8223 33.1215 10.8223C32.3666 10.8223 31.6973 10.9974 31.1135 11.3477C30.5376 11.6901 30.0862 12.1532 29.7593 12.737C29.4324 13.3129 29.265 13.955 29.2573 14.6633V17.5936C29.2573 18.4808 29.4207 19.2475 29.7476 19.8935C30.0823 20.5395 30.5531 21.0376 31.1602 21.3878C31.7673 21.7381 32.4872 21.9132 33.32 21.9132C33.8726 21.9132 34.3785 21.8353 34.8377 21.6797C35.2969 21.524 35.69 21.2905 36.0168 20.9792C36.3437 20.6679 36.5928 20.2865 36.764 19.8351L41.3638 20.1386C41.1303 21.2438 40.6516 22.2089 39.9278 23.0339C39.2118 23.8512 38.2856 24.4894 37.1493 24.9486C36.0207 25.4 34.7171 25.6257 33.2383 25.6257Z" fill="white"/>
<path d="M59.6345 12.4568L55.0814 12.737C55.0036 12.3478 54.8363 11.9976 54.5794 11.6862C54.3226 11.3671 53.984 11.1142 53.5637 10.9274C53.1512 10.7328 52.657 10.6355 52.0811 10.6355C51.3105 10.6355 50.6606 10.799 50.1314 11.1259C49.6021 11.445 49.3375 11.873 49.3375 12.4101C49.3375 12.8381 49.5088 13.2 49.8512 13.4958C50.1937 13.7916 50.7813 14.0289 51.6141 14.208L54.8596 14.8617C56.603 15.2197 57.9028 15.7957 58.7589 16.5896C59.615 17.3834 60.0431 18.4264 60.0431 19.7183C60.0431 20.8936 59.6968 21.9248 59.0041 22.8121C58.3192 23.6994 57.3774 24.3921 56.1788 24.8902C54.988 25.3805 53.6143 25.6257 52.0577 25.6257C49.6839 25.6257 47.7926 25.1315 46.3839 24.143C44.9829 23.1468 44.1618 21.7925 43.9205 20.0803L48.8122 19.8234C48.96 20.5472 49.3181 21.0998 49.8862 21.4812C50.4544 21.8548 51.1821 22.0416 52.0694 22.0416C52.9411 22.0416 53.6416 21.8743 54.1708 21.5396C54.7078 21.1971 54.9802 20.7574 54.988 20.2204C54.9802 19.7689 54.7895 19.3992 54.416 19.1113C54.0424 18.8155 53.4664 18.5898 52.6881 18.4341L49.5827 17.8154C47.8315 17.4652 46.5278 16.8581 45.6717 15.9942C44.8234 15.1302 44.3992 14.0289 44.3992 12.6903C44.3992 11.5384 44.7105 10.546 45.3331 9.71324C45.9636 8.88046 46.847 8.23836 47.9833 7.78694C49.1274 7.33552 50.4661 7.10981 51.9993 7.10981C54.2642 7.10981 56.0465 7.58847 57.3463 8.54579C58.6538 9.5031 59.4166 10.8068 59.6345 12.4568Z" fill="white"/>
<path d="M72.7129 7.34331V11.0792H61.914V7.34331H72.7129ZM64.3656 3.04706H69.339V19.765C69.339 20.2242 69.409 20.5823 69.5491 20.8391C69.6892 21.0882 69.8838 21.2633 70.1329 21.3645C70.3897 21.4656 70.6854 21.5162 71.0201 21.5162C71.2536 21.5162 71.4871 21.4968 71.7206 21.4579C71.9541 21.4112 72.1331 21.3761 72.2576 21.3528L73.0398 25.0536C72.7908 25.1315 72.4405 25.221 71.9891 25.3221C71.5377 25.4311 70.989 25.4973 70.343 25.5206C69.1444 25.5673 68.0937 25.4078 67.1909 25.042C66.2958 24.6762 65.5992 24.108 65.1011 23.3375C64.603 22.5669 64.3578 21.5941 64.3656 20.4188V3.04706Z" fill="white"/>
<path d="M75.9526 25.2754V7.34331H80.926V25.2754H75.9526ZM78.451 5.03174C77.7116 5.03174 77.0773 4.78657 76.548 4.29624C76.0266 3.79813 75.7658 3.20272 75.7658 2.51003C75.7658 1.82512 76.0266 1.2375 76.548 0.747174C77.0773 0.249058 77.7116 0 78.451 0C79.1904 0 79.8208 0.249058 80.3423 0.747174C80.8715 1.2375 81.1361 1.82512 81.1361 2.51003C81.1361 3.20272 80.8715 3.79813 80.3423 4.29624C79.8208 4.78657 79.1904 5.03174 78.451 5.03174Z" fill="white"/>
<path d="M94.5531 7.34331V11.0792H83.4856V7.34331H94.5531ZM86.019 25.2754V6.04743C86.019 4.74766 86.272 3.66971 86.7779 2.81357C87.2915 1.95744 87.992 1.31533 88.8793 0.887267C89.7666 0.459199 90.7745 0.245166 91.903 0.245166C92.6658 0.245166 93.3623 0.303539 93.9928 0.420286C94.631 0.537031 95.1057 0.642102 95.4171 0.735499L94.5298 4.47136C94.3352 4.4091 94.0939 4.35072 93.806 4.29624C93.5258 4.24176 93.2378 4.21452 92.942 4.21452C92.2104 4.21452 91.7006 4.38575 91.4127 4.7282C91.1247 5.06287 90.9807 5.53375 90.9807 6.14083V25.2754H86.019Z" fill="white"/>
<path d="M100.662 32C100.031 32 99.4399 31.9494 98.8873 31.8482C98.3425 31.7548 97.8911 31.6342 97.5331 31.4863L98.6538 27.7738C99.2376 27.9528 99.7629 28.0501 100.23 28.0657C100.705 28.0812 101.113 27.9723 101.456 27.7388C101.806 27.5053 102.09 27.1084 102.308 26.548L102.6 25.7891L96.1672 7.34331H101.397L105.11 20.5122H105.297L109.044 7.34331H114.309L107.34 27.2134C107.005 28.1785 106.55 29.0191 105.974 29.7351C105.406 30.459 104.686 31.0154 103.814 31.4046C102.942 31.8015 101.892 32 100.662 32Z" fill="white"/>
</svg>
