<svg width="138" height="157" viewBox="0 0 138 157" fill="none" xmlns="http://www.w3.org/2000/svg">
<path fill-rule="evenodd" clip-rule="evenodd" d="M0.499634 156.916C0.499634 156.916 39.2661 118.942 69.6025 98.0358C99.6726 77.3139 120.193 45.6392 105.149 5.99041C104.786 5.02664 105.279 3.92917 106.248 3.53881C107.221 3.15146 108.307 3.61764 108.671 4.58139C124.432 46.125 103.19 79.4074 71.688 101.116C45.1392 119.413 0.499634 156.916 0.499634 156.916Z" fill="#00DA92"/>
<path fill-rule="evenodd" clip-rule="evenodd" d="M107.409 7.45757C105.996 11.6959 104.722 15.9577 102.981 20.0968C98.3435 31.1247 91.213 41.6584 81.9696 49.3836C81.1591 50.0579 79.9755 49.9611 79.3213 49.1736C78.6668 48.3795 78.7927 47.1932 79.5965 46.5195C88.3734 39.193 95.1168 29.1747 99.5152 18.7117C101.506 13.9731 102.878 9.06594 104.561 4.22606C104.648 3.98548 105.316 1.86163 105.579 1.44915C106.186 0.485118 107.044 0.458734 107.441 0.497461C107.774 0.525665 108.163 0.639236 108.553 0.947794C108.871 1.20274 109.359 1.83147 109.828 2.81519C111.342 5.96134 113.807 13.8323 114.35 15.0781C120.566 29.3593 128.772 41.5429 137.086 54.594C137.635 55.4623 137.37 56.632 136.491 57.2053C135.613 57.7785 134.452 57.5382 133.901 56.6735C125.48 43.4578 117.187 31.1079 110.898 16.6521C110.522 15.7971 108.705 10.9412 107.409 7.45757Z" fill="#00DA92"/>
</svg>
